<?xml version="1.0" standalone="no"?>
<!DOCTYPE svg PUBLIC "-//W3C//DTD SVG 20010904//EN"
 "http://www.w3.org/TR/2001/REC-SVG-20010904/DTD/svg10.dtd">
<svg version="1.0" xmlns="http://www.w3.org/2000/svg"
 width="1024.000000pt" height="1024.000000pt" viewBox="0 0 1024.000000 1024.000000"
 preserveAspectRatio="xMidYMid meet">

<g transform="translate(0.000000,1024.000000) scale(0.100000,-0.100000)"
fill="#000000" stroke="none">
<path d="M0 5120 l0 -5120 5120 0 5120 0 0 1078 -1 1077 -29 -35 c-17 -19 -51
-87 -76 -152 -25 -65 -47 -118 -49 -118 -10 0 8 83 35 170 17 54 49 127 75
168 l45 73 0 3990 0 3989 -5120 0 -5120 0 0 -5120z m1725 4281 c-3 -12 -11
-21 -16 -21 -10 0 -12 43 -2 54 12 12 25 -11 18 -33z m1570 -35 c291 -52 578
-198 770 -391 59 -59 144 -158 173 -202 14 -21 29 -40 32 -43 23 -17 133 -238
172 -345 23 -62 50 -164 63 -235 2 -14 8 -38 13 -55 5 -16 8 -118 7 -225 -1
-183 -3 -203 -32 -320 -18 -69 -39 -145 -47 -169 -19 -51 -22 -86 -6 -61 8 13
10 12 10 -2 0 -10 5 -18 11 -18 8 0 8 -5 -1 -15 -17 -20 -12 -19 48 10 29 14
59 25 67 25 9 0 18 7 22 16 4 11 8 12 13 4 5 -8 14 -8 36 0 80 31 409 65 534
56 102 -7 145 -17 128 -27 -8 -5 15 -9 57 -10 65 -1 148 -15 115 -18 -8 -1 23
-13 70 -27 257 -76 506 -214 682 -379 103 -97 247 -268 261 -310 7 -20 7 -20
-8 -1 -15 19 -15 19 -15 -2 0 -12 5 -22 10 -22 6 0 10 -9 10 -21 0 -11 4 -18
9 -15 11 7 32 -40 25 -59 -8 -20 6 -19 23 3 13 15 13 15 3 -6 -13 -27 -35 -24
-36 4 -2 38 -4 44 -15 44 -6 0 -8 -8 -4 -19 5 -16 2 -19 -17 -15 -13 2 -16 1
-8 -2 22 -10 29 -24 24 -50 -3 -18 2 -24 26 -29 16 -4 30 -12 30 -19 0 -15
-20 -36 -35 -36 -6 0 -5 4 2 8 8 5 9 13 3 22 -9 13 -10 13 -11 0 0 -8 -2 -25
-3 -37 -2 -14 2 -19 11 -16 14 5 19 -12 6 -20 -5 -2 -3 -2 4 -1 6 1 24 -1 40
-7 27 -9 27 -9 2 -6 -15 2 -35 -2 -45 -10 -13 -10 -14 -13 -3 -14 8 -1 20 -2
28 -3 8 0 15 -7 17 -14 1 -7 0 -8 -3 -2 -7 15 -23 12 -23 -5 0 -8 5 -15 10
-15 6 0 10 -9 10 -19 0 -11 5 -23 11 -27 8 -4 7 -9 -2 -15 -12 -8 -11 -11 1
-19 13 -8 12 -10 -4 -10 -16 0 -15 -3 8 -25 15 -14 21 -25 14 -25 -8 -1 -5 -6
6 -15 12 -9 15 -15 7 -15 -7 0 -11 -6 -8 -15 4 -8 2 -17 -3 -20 -15 -9 -12
-46 3 -44 6 1 21 1 32 0 16 -2 15 -5 -10 -17 l-30 -14 28 5 c15 3 27 1 27 -5
0 -5 -6 -10 -12 -10 -9 0 -8 -4 2 -10 11 -7 5 -8 -20 -4 -28 4 -31 3 -18 -6 9
-6 15 -17 12 -25 -4 -8 -1 -15 5 -15 5 0 10 -12 10 -27 0 -53 7 -98 19 -120
14 -25 16 -45 3 -24 -7 11 -11 10 -20 -7 -12 -22 -10 -56 3 -69 5 -5 7 7 4 25
-2 17 -1 32 4 32 4 0 8 -18 8 -40 0 -33 -3 -40 -20 -40 -11 0 -20 -7 -20 -15
0 -8 6 -15 13 -15 8 0 7 -4 -3 -10 -12 -8 -11 -10 8 -10 12 0 22 -4 22 -10 0
-5 -11 -10 -25 -10 -32 0 -34 -32 -2 -49 12 -6 14 -9 5 -7 -16 5 -23 -5 -19
-27 1 -4 -6 -10 -14 -13 -8 -4 -15 -10 -15 -15 0 -5 11 -2 25 7 14 9 22 20 19
25 -3 5 -1 9 5 9 23 0 18 -17 -12 -40 -71 -56 -102 -87 -129 -129 -15 -25 -28
-49 -28 -53 0 -5 36 20 80 56 117 96 231 167 401 252 260 130 471 156 634 79
149 -71 275 -312 275 -524 -1 -124 -47 -197 -131 -206 -51 -5 -112 11 -103 27
4 7 2 8 -4 4 -31 -19 -104 68 -141 169 -27 72 -28 114 -6 183 10 29 15 55 13
58 -3 2 -18 -14 -33 -36 -36 -53 -73 -78 -143 -101 -32 -10 -52 -19 -47 -19 6
-1 -21 -10 -59 -20 -38 -10 -76 -16 -85 -14 -9 3 -3 -2 12 -11 15 -9 25 -20
22 -25 -3 -6 1 -7 9 -4 9 4 16 1 16 -6 0 -7 7 -10 15 -6 8 3 15 1 15 -3 0 -5
-6 -12 -12 -14 -9 -4 -8 -6 2 -6 27 -2 21 -72 -30 -357 -52 -285 -63 -338 -56
-249 3 28 2 42 0 33 -3 -10 -10 -18 -16 -18 -5 0 -8 -6 -5 -12 2 -7 1 -22 -4
-33 -6 -17 -8 -17 -8 -2 -1 19 -16 23 -27 5 -4 -7 -3 -8 4 -4 7 4 12 3 12 -3
0 -5 -8 -14 -17 -20 -15 -8 -15 -11 -3 -26 12 -15 11 -16 -13 -10 -22 6 -25 4
-20 -14 4 -14 0 -23 -13 -28 -11 -4 -25 -13 -33 -21 -12 -11 -12 -15 -1 -22 9
-6 7 -9 -8 -14 -11 -4 -24 -6 -28 -5 -22 4 -34 -2 -34 -16 0 -8 -6 -15 -14
-15 -8 0 -24 -12 -35 -26 -11 -14 -25 -23 -31 -19 -5 3 -10 1 -10 -4 0 -6 -17
-18 -37 -26 -30 -13 -35 -18 -23 -25 9 -6 10 -10 3 -10 -24 0 -23 21 2 44 23
22 24 24 6 19 -12 -3 -21 -10 -21 -15 0 -12 -68 -40 -80 -33 -9 5 -15 -15 -11
-37 0 -5 -8 -8 -18 -8 -18 0 -18 -2 -6 -28 8 -15 23 -37 34 -49 11 -11 17 -24
14 -27 -4 -3 0 -6 7 -6 7 0 10 -3 7 -6 -3 -4 5 -15 18 -26 14 -11 25 -25 25
-33 0 -7 7 -15 15 -19 8 -3 15 -11 15 -18 0 -7 9 -19 20 -26 12 -7 19 -16 16
-21 -6 -9 39 -51 55 -51 6 0 8 -7 5 -15 -3 -9 1 -18 10 -22 8 -3 13 -11 11
-17 -4 -11 16 -36 30 -37 5 -1 7 -5 5 -10 -1 -5 5 -12 14 -16 8 -3 20 -17 25
-30 8 -21 12 -23 24 -13 13 11 14 10 9 -4 -4 -9 -1 -16 6 -16 7 0 10 -7 6 -15
-3 -9 0 -15 8 -15 8 0 17 -7 20 -16 4 -10 12 -14 22 -10 11 4 15 2 11 -8 -7
-17 21 -58 34 -51 5 4 9 1 9 -4 0 -6 7 -11 16 -11 8 0 13 -3 11 -7 -3 -5 1
-13 8 -20 11 -10 15 -10 18 0 3 7 6 2 6 -10 1 -18 61 -76 61 -59 0 3 12 -6 26
-19 15 -14 33 -25 40 -25 8 0 14 -4 14 -8 0 -5 12 -14 26 -20 15 -7 22 -17 18
-24 -5 -7 -2 -9 9 -5 9 3 26 -4 41 -18 15 -13 32 -22 40 -19 7 3 16 -2 19 -10
4 -9 16 -16 27 -16 11 0 20 -5 20 -11 0 -7 9 -9 21 -6 25 7 59 -12 59 -31 0
-7 4 -11 9 -7 5 3 12 1 16 -5 4 -6 11 -8 16 -5 5 4 9 1 9 -4 0 -6 8 -11 18
-11 10 0 24 -6 30 -12 10 -10 15 -10 22 2 8 13 10 12 10 -4 0 -15 5 -17 30
-12 24 4 30 2 30 -12 0 -13 2 -14 9 -4 6 10 13 11 27 4 36 -20 59 -25 123 -27
46 -2 68 -8 76 -19 12 -16 31 -23 21 -8 -3 5 8 9 24 9 16 0 27 -4 24 -8 -2 -4
0 -10 6 -14 5 -3 10 0 10 7 0 10 2 10 9 -1 5 -7 11 -9 14 -5 3 5 35 9 71 8 40
-1 66 3 66 9 0 6 3 8 6 4 8 -8 -12 -68 -49 -147 -21 -44 -52 -87 -99 -132 -37
-38 -73 -68 -78 -68 -6 0 2 12 17 26 27 24 27 25 3 12 -14 -7 -29 -11 -34 -10
-5 2 -13 -3 -17 -10 -7 -10 -9 -10 -9 0 0 6 -5 12 -10 12 -6 0 -9 -5 -8 -11 2
-6 -3 -14 -11 -17 -10 -3 -12 0 -8 12 4 9 2 16 -3 16 -6 0 -10 -6 -10 -14 0
-11 -7 -12 -27 -7 -22 6 -32 3 -45 -13 -14 -17 -17 -17 -12 -3 9 25 -5 21 -16
-5 -8 -21 -9 -20 -9 10 -1 39 -21 44 -21 5 0 -21 -3 -24 -9 -13 -6 8 -7 18 -5
22 6 9 -7 11 -49 8 -15 -1 -35 4 -44 12 -14 11 -15 10 -9 -12 5 -18 5 -21 -3
-10 -8 12 -13 12 -31 -5 -19 -17 -20 -17 -14 -1 5 14 2 16 -20 10 -16 -4 -26
-2 -26 5 0 6 8 8 18 4 14 -5 15 -3 5 7 -10 10 -15 11 -27 1 -12 -10 -17 -9
-26 6 -9 15 -10 14 -4 -7 6 -22 5 -23 -9 -11 -9 7 -15 17 -12 21 6 10 -24 35
-32 26 -3 -3 -1 -6 5 -6 7 0 12 -7 12 -15 0 -19 -34 -20 -49 -1 -9 11 -9 15 1
19 7 3 3 4 -9 4 -19 -1 -21 -5 -16 -26 4 -17 2 -22 -6 -17 -6 4 -9 12 -6 17 4
5 0 9 -9 9 -8 0 -16 3 -19 8 -2 4 -2 1 0 -6 2 -9 -3 -11 -17 -7 -15 5 -20 2
-20 -12 0 -11 -3 -14 -8 -7 -4 6 -15 13 -25 17 -10 4 -17 15 -15 24 2 10 -5
19 -16 21 -15 3 -17 0 -12 -14 5 -17 4 -17 -9 1 -10 12 -12 21 -5 23 5 2 10 8
10 14 0 6 -7 7 -17 3 -10 -4 -32 -9 -49 -11 -27 -3 -31 0 -27 17 4 14 0 19
-16 19 -19 0 -20 -3 -11 -21 7 -11 9 -23 7 -26 -3 -2 -8 5 -12 16 -7 22 -35
29 -35 9 0 -6 -3 -8 -6 -5 -4 4 -1 14 7 23 12 15 11 16 -19 10 -21 -5 -32 -4
-32 3 0 6 5 11 10 11 6 0 10 5 10 10 0 6 -9 10 -20 10 -18 0 -25 -15 -21 -42
0 -4 -7 -4 -16 -1 -11 4 -13 8 -5 11 19 6 14 16 -15 29 -32 14 -75 13 -85 -1
-4 -6 -10 -7 -15 -3 -4 5 -1 12 7 18 13 8 12 11 -4 20 -10 6 -25 20 -34 30
-20 24 -29 24 -35 2 -4 -15 -6 -15 -12 5 -8 23 -21 29 -27 12 -2 -6 -9 0 -17
12 -13 20 -12 22 1 11 8 -7 18 -10 21 -6 16 15 4 20 -38 17 -33 -2 -45 1 -45
11 0 8 -9 20 -20 28 -11 8 -18 16 -15 19 3 2 -9 3 -26 0 l-30 -4 25 -13 c14
-8 33 -16 43 -19 10 -3 5 -3 -12 0 -16 3 -39 6 -50 8 -11 1 -22 11 -24 22 -2
10 -8 25 -13 32 -7 8 -6 12 3 12 9 1 8 4 -4 11 -26 15 -53 4 -37 -16 7 -8 16
-13 20 -10 5 3 12 0 16 -6 4 -8 3 -9 -4 -5 -7 4 -12 2 -12 -3 0 -6 -9 -2 -20
9 -12 12 -17 26 -13 37 7 17 5 17 -21 0 -15 -10 -34 -16 -42 -13 -8 3 -14 1
-14 -5 0 -6 -5 -7 -12 -3 -9 6 -9 9 0 12 19 6 14 19 -9 25 -14 4 -20 11 -16
21 5 13 2 13 -19 4 -17 -8 -21 -15 -14 -22 15 -15 12 -24 -7 -29 -15 -3 -14
-6 7 -15 14 -6 21 -11 16 -11 -6 -1 -1 -8 10 -16 17 -13 17 -14 2 -15 -10 0
-18 -4 -18 -10 0 -5 6 -7 14 -4 8 3 19 -4 26 -16 11 -20 10 -21 -11 -15 -21 7
-22 6 -7 -9 9 -9 22 -16 29 -16 10 0 10 -3 2 -11 -8 -8 -5 -17 13 -34 18 -16
21 -25 12 -28 -8 -4 -7 -6 5 -6 9 -1 17 -8 17 -16 0 -8 5 -15 11 -15 6 0 9 -9
6 -19 -3 -15 -1 -18 11 -14 11 5 14 2 10 -9 -4 -8 1 -22 10 -31 28 -26 42 -46
42 -58 0 -6 7 -8 16 -5 13 5 15 1 10 -21 -4 -18 -3 -23 2 -15 7 11 14 8 31
-14 11 -14 21 -36 22 -48 0 -21 1 -21 9 -1 8 19 9 19 9 -2 1 -17 5 -21 18 -16
12 5 15 2 10 -10 -4 -10 -1 -17 6 -17 7 0 21 -14 32 -30 11 -16 27 -30 35 -30
13 0 13 -1 0 -10 -8 -5 -12 -11 -10 -12 3 -2 18 -12 33 -22 20 -12 27 -23 24
-37 -3 -10 -1 -16 4 -13 5 3 12 -2 15 -10 3 -9 10 -13 15 -10 5 3 10 -10 10
-28 2 -30 2 -31 6 -6 6 37 23 36 23 -2 0 -19 5 -29 13 -28 6 2 11 -5 11 -14
-1 -10 2 -15 7 -12 5 3 23 -9 41 -26 l31 -31 -19 -61 c-10 -33 -30 -80 -45
-104 -45 -71 -135 -124 -163 -97 -4 4 -23 6 -42 4 -29 -2 -36 1 -41 18 -3 12
-12 21 -20 21 -8 0 -11 -4 -8 -10 4 -6 -7 -10 -26 -10 -31 0 -32 1 -13 15 18
15 17 16 -16 10 -31 -5 -33 -4 -17 8 9 8 17 18 17 23 0 4 -5 3 -11 -3 -8 -8
-20 -8 -36 -2 -14 5 -29 6 -35 3 -6 -4 -8 1 -4 14 4 13 1 22 -9 26 -9 3 -13 2
-10 -4 3 -6 1 -10 -4 -10 -6 0 -11 5 -11 11 0 5 -4 7 -10 4 -5 -3 -10 0 -11 7
0 9 -2 10 -5 1 -3 -7 -12 -9 -20 -6 -12 4 -12 8 -2 21 11 13 10 15 -9 10 -14
-4 -24 -1 -27 9 -5 13 -9 13 -22 3 -13 -12 -14 -9 -9 21 3 19 2 29 -2 24 -5
-6 -23 -10 -40 -10 -25 0 -33 4 -33 18 0 14 -5 17 -22 11 -22 -6 -23 -6 -5 13
17 20 17 21 -10 28 -15 5 -31 8 -35 7 -5 -1 -8 5 -8 14 0 8 -4 12 -10 9 -6 -3
-10 -1 -10 4 0 6 -9 11 -21 11 -13 0 -23 8 -26 21 -4 13 -8 16 -13 9 -10 -16
-60 6 -60 27 -1 17 -2 16 -15 -1 -8 -11 -18 -16 -22 -12 -4 4 -1 11 6 15 17
11 5 32 -14 24 -9 -3 -15 1 -15 10 0 8 -11 18 -24 21 -14 3 -28 15 -31 26 -7
23 -16 25 -33 8 -6 -6 -15 -8 -19 -4 -4 4 -1 11 7 16 12 7 12 12 3 21 -10 10
-15 7 -23 -12 -10 -24 -10 -23 -6 4 2 20 0 25 -7 18 -6 -6 -18 -11 -26 -11
-11 0 -10 4 5 16 16 13 16 15 2 10 -12 -3 -18 0 -18 9 0 8 -9 15 -20 15 -11 0
-20 4 -20 9 0 5 -7 17 -16 25 -10 11 -11 16 -3 16 7 0 10 3 7 6 -4 3 -16 0
-28 -6 -18 -10 -25 -8 -41 9 -10 11 -19 26 -19 33 0 9 -3 9 -10 -2 -9 -13 -10
-13 -10 1 0 8 -12 20 -27 27 -25 10 -25 11 -4 7 13 -2 20 0 15 5 -5 4 -18 10
-29 12 -11 2 -25 14 -31 26 -7 13 -15 19 -18 14 -3 -6 -2 -13 4 -17 6 -4 7
-11 4 -17 -4 -7 -13 -2 -24 12 -15 19 -20 21 -41 11 -21 -11 -22 -11 -6 2 23
19 22 30 -2 22 -18 -5 -19 -3 -8 24 7 20 14 26 19 18 4 -7 8 -7 8 -2 0 6 -4
16 -9 24 -6 10 -11 6 -19 -15 -6 -16 -11 -22 -11 -13 -1 19 -31 48 -31 31 0
-6 5 -14 10 -17 17 -11 11 -25 -11 -25 -11 0 -18 -4 -15 -8 3 -5 -9 -6 -27 -3
-32 5 -32 6 -4 9 15 2 27 9 28 15 0 7 2 24 3 38 1 21 -2 25 -17 21 -10 -3 -29
1 -43 8 -13 8 -27 10 -31 7 -3 -4 1 -7 10 -7 9 0 18 -4 21 -8 3 -5 -18 -5 -46
-1 -43 7 -53 6 -64 -9 -17 -22 -17 -45 -2 -60 9 -9 9 -12 0 -12 -7 0 -15 13
-18 30 -4 16 -11 28 -16 27 -6 -1 -13 4 -16 12 -3 9 0 11 8 6 8 -5 11 -4 6 3
-11 18 -34 3 -29 -19 3 -10 9 -19 14 -19 4 0 6 -14 4 -30 -2 -17 0 -28 6 -25
5 4 9 1 9 -4 0 -15 27 -14 33 2 2 6 8 9 12 5 5 -5 -3 -17 -16 -29 -22 -19 -23
-21 -6 -30 12 -7 16 -17 12 -30 -5 -13 -2 -19 10 -19 9 0 14 4 10 9 -3 5 -1
12 4 15 5 3 9 -16 10 -42 1 -81 1 -82 22 -82 11 0 18 -4 15 -9 -3 -4 1 -16 8
-27 8 -10 12 -24 9 -31 -3 -7 0 -13 6 -13 6 0 11 -7 11 -15 0 -8 7 -15 15 -15
8 0 15 -6 15 -12 0 -16 42 -101 54 -109 5 -4 5 -12 2 -18 -4 -6 -4 -11 1 -10
22 4 31 -3 26 -20 -3 -13 2 -23 16 -30 12 -7 21 -18 21 -26 0 -8 5 -15 11 -15
6 0 9 -6 6 -12 -2 -7 2 -18 10 -23 8 -6 15 -21 16 -33 1 -13 6 -21 13 -18 7 3
18 -2 24 -9 7 -8 17 -12 23 -8 6 3 7 1 3 -6 -4 -6 -12 -9 -17 -6 -5 3 -6 0 -3
-8 7 -19 -105 -116 -176 -153 -45 -23 -68 -28 -125 -29 -126 0 -229 71 -395
273 -28 34 -69 74 -91 89 -26 17 -36 29 -28 33 8 6 7 10 -3 16 -8 5 -23 21
-33 37 -9 15 -24 27 -31 27 -8 0 -14 7 -14 15 0 8 -7 15 -15 15 -8 0 -15 9
-15 20 0 11 -4 20 -10 20 -5 0 -10 -5 -10 -11 0 -5 -5 -7 -10 -4 -8 5 -7 11 0
20 9 11 6 13 -17 9 -20 -3 -24 -2 -13 5 8 6 11 13 7 17 -4 4 -2 13 3 19 8 9 4
12 -15 10 -14 -2 -25 2 -25 8 0 8 -3 7 -9 -2 -11 -18 -17 -6 -26 54 -7 43 -9
47 -16 25 -4 -14 -7 -19 -8 -12 -1 7 -13 24 -27 37 -17 16 -22 25 -13 25 8 1
5 6 -7 13 -12 7 -20 20 -19 30 2 9 -1 17 -6 17 -5 0 -9 6 -9 13 0 7 -9 19 -20
27 -11 8 -18 23 -16 34 2 12 1 15 -1 8 -8 -21 -23 -13 -23 13 0 14 -9 30 -20
37 -11 7 -20 20 -20 30 0 9 -6 23 -12 30 -17 18 -78 140 -78 156 0 7 -10 12
-22 12 -23 1 -23 1 2 16 25 15 25 15 -14 10 -22 -3 -43 -11 -48 -18 -6 -10 -8
-10 -8 0 0 6 -8 12 -17 12 -15 0 -16 2 -3 10 9 5 16 6 18 0 2 -5 10 -6 18 -3
13 5 13 7 -1 17 -12 9 -13 18 -6 44 5 17 8 32 6 32 -9 0 -36 -61 -30 -69 8
-14 -21 -21 -34 -8 -8 8 -14 7 -23 -2 -7 -8 -8 -11 -2 -8 6 3 21 -1 33 -10 17
-11 21 -21 17 -39 -5 -17 -2 -24 9 -24 8 0 15 8 15 18 0 12 4 11 14 -8 16 -31
7 -43 -44 -60 -35 -12 -55 -30 -32 -30 4 0 9 -12 10 -27 3 -33 22 -56 23 -27
0 14 2 15 6 4 3 -8 11 -18 17 -22 7 -5 4 -8 -6 -8 -20 0 -24 -25 -7 -35 6 -4
8 -13 5 -21 -3 -7 -1 -16 4 -19 6 -4 10 -18 10 -33 0 -15 6 -39 14 -54 8 -15
17 -40 21 -57 4 -17 11 -31 16 -31 6 0 7 -5 4 -10 -4 -6 -1 -17 5 -25 7 -8 10
-22 6 -30 -3 -9 0 -15 9 -15 14 0 20 -18 16 -48 -1 -8 5 -24 13 -37 9 -14 16
-29 16 -35 0 -6 7 -18 15 -26 8 -8 11 -22 8 -31 -5 -12 -2 -15 10 -10 11 4 14
2 10 -9 -3 -7 -9 -14 -15 -14 -5 0 -6 -5 -3 -10 4 -6 11 -8 16 -5 5 4 9 -3 9
-13 0 -16 5 -19 23 -15 18 4 19 3 7 -6 -10 -7 -11 -14 -5 -19 6 -4 10 -17 9
-29 -1 -13 2 -23 7 -23 15 0 22 -42 8 -51 -12 -8 -12 -10 -1 -18 10 -6 5 -11
-19 -20 -49 -17 -99 -13 -154 13 -44 20 -120 89 -120 108 0 3 -4 10 -9 15 -5
5 -6 2 -1 -6 5 -9 3 -12 -6 -9 -8 3 -13 11 -11 17 1 7 -2 10 -7 7 -14 -9 -42
5 -34 17 4 6 1 7 -6 3 -16 -10 -71 13 -71 29 0 7 -13 27 -30 45 -16 18 -30 38
-30 46 0 8 -4 14 -10 14 -5 0 -10 5 -10 11 0 6 -14 30 -30 55 -17 24 -27 44
-23 45 4 0 -2 4 -14 9 -13 5 -20 15 -18 22 3 7 -5 24 -18 38 -13 14 -24 28
-24 33 -6 38 -16 67 -24 67 -5 0 -17 18 -26 40 -10 22 -21 40 -25 40 -4 0 -5
6 -2 14 3 7 -2 16 -11 20 -9 3 -14 10 -11 15 11 17 -35 86 -59 88 -5 1 -11 7
-14 14 -2 7 1 9 8 5 7 -5 11 2 11 18 0 22 -5 26 -27 26 -26 0 -26 1 -7 15 18
14 18 16 2 25 -9 6 -15 17 -12 24 4 9 -2 13 -20 11 -19 -2 -23 1 -19 13 5 13
0 14 -30 9 -28 -4 -37 -2 -37 9 0 8 5 14 11 14 5 0 7 5 3 11 -4 7 -9 8 -17 0
-7 -7 -3 -45 12 -123 52 -265 119 -489 191 -646 28 -59 34 -80 22 -73 -53 29
-113 132 -163 281 -189 567 -269 1628 -183 2435 19 183 58 450 94 650 16 88
31 193 34 233 2 41 8 77 12 80 4 4 4 -5 2 -20 -3 -16 -1 -28 3 -28 5 0 9 7 9
15 0 8 16 73 35 144 19 71 32 137 29 148 -4 12 -3 14 3 6 6 -9 17 10 33 60 13
39 24 79 25 87 0 8 9 28 20 43 10 16 18 42 18 58 0 16 3 25 7 19 3 -5 23 24
44 65 112 228 285 425 499 570 53 35 57 41 41 52 -10 7 -15 13 -11 13 3 0 -11
49 -33 109 -36 102 -113 348 -140 451 -7 25 -12 77 -11 117 1 39 -3 74 -8 77
-5 3 -19 -3 -33 -13 -22 -18 -100 -31 -183 -31 -46 0 -72 -8 -79 -26 -5 -13
-1 -15 20 -10 18 5 37 0 61 -14 38 -22 64 -25 79 -10 6 6 36 13 67 16 l57 4 0
-48 c0 -64 -15 -146 -47 -257 -28 -97 -100 -290 -131 -350 l-19 -38 -16 42
c-10 23 -17 48 -17 56 0 7 -4 25 -10 40 -9 25 -12 22 -53 -58 -45 -87 -121
-187 -143 -187 -6 0 -26 16 -44 36 -28 33 -31 41 -26 83 3 25 8 82 12 126 8
106 11 115 40 115 14 0 27 6 30 13 3 8 -7 71 -21 141 -14 70 -28 163 -32 207
-6 84 -16 107 -28 62 -9 -37 -92 -203 -116 -232 -11 -13 -22 -21 -25 -19 -3 3
-1 68 3 144 l8 139 43 3 c24 2 45 9 48 16 3 8 -9 51 -26 97 -17 46 -38 100
-45 120 -62 166 -212 752 -224 877 l-8 87 -2 -113 c-1 -130 -15 -204 -76 -415
-77 -265 -122 -395 -188 -539 -53 -116 -54 -118 -20 -118 57 0 62 -12 64 -163
1 -75 -1 -140 -4 -143 -10 -10 -56 70 -91 157 -54 136 -50 128 -53 89 -2 -19
-15 -102 -29 -185 -41 -243 -40 -225 -15 -232 26 -7 41 -40 41 -92 0 -20 9
-74 21 -119 23 -93 28 -79 -57 -175 -50 -56 -56 -52 -73 51 -7 40 -14 72 -16
70 -2 -2 -9 -41 -15 -87 -14 -100 -30 -137 -64 -143 -14 -3 -28 -3 -31 0 -3 3
-5 42 -5 88 l0 82 40 7 c23 4 40 12 40 20 0 7 -24 60 -54 118 -61 119 -134
334 -166 487 -11 57 -22 106 -24 107 -1 1 -19 -50 -40 -115 -84 -261 -221
-592 -244 -592 -6 0 -13 18 -16 40 -3 22 -9 58 -12 80 -6 39 -4 41 30 55 44
19 45 36 6 99 -92 144 -156 309 -170 438 -6 51 -12 94 -15 96 -2 2 -19 -8 -38
-22 -25 -19 -46 -26 -80 -26 -25 0 -48 -4 -52 -9 -3 -6 -23 -9 -44 -8 -38 1
-71 -15 -71 -35 0 -6 13 -8 31 -4 23 4 41 0 66 -15 l35 -22 28 22 c16 11 39
21 51 21 12 0 30 7 40 16 30 27 40 -9 29 -115 -14 -130 -32 -215 -88 -403 -21
-70 -20 -78 10 -78 10 0 23 -10 27 -22 16 -40 52 -328 43 -344 -7 -12 -19 -4
-59 43 -152 176 -283 465 -327 718 -17 98 -15 86 -20 225 -8 240 29 416 128
625 42 86 140 254 155 265 4 3 12 12 17 21 13 24 85 107 118 138 16 14 49 45
72 69 24 23 47 42 51 42 4 0 18 11 32 24 28 26 156 116 165 116 3 0 28 14 56
31 111 68 289 128 485 163 98 17 335 13 450 -8z m-2595 -5 c0 -12 -129 -75
-137 -67 -8 8 -7 9 67 44 75 36 70 35 70 23z m5876 -2 c3 -6 16 -8 28 -5 20 5
22 2 22 -28 -1 -30 -3 -33 -20 -24 -15 8 -22 7 -33 -8 -16 -22 -31 -9 -16 15
7 11 8 23 2 32 -5 8 -9 17 -9 22 0 11 18 8 26 -4z m2831 -142 c12 -7 68 -53
125 -102 57 -50 139 -120 183 -157 44 -36 98 -85 120 -108 l40 -42 -45 22
c-152 77 -386 264 -440 352 -30 50 -26 59 17 35z m-7862 -96 c-3 -5 -1 -12 5
-16 16 -10 12 -25 -5 -19 -17 7 -21 44 -4 44 5 0 8 -4 4 -9z m-25 -21 c0 -5
-4 -10 -10 -10 -5 0 -10 5 -10 10 0 6 5 10 10 10 6 0 10 -4 10 -10z m4192 -54
c16 -22 16 -27 2 -55 -9 -17 -18 -31 -21 -31 -3 0 -17 12 -30 26 -22 24 -23
28 -9 43 9 10 16 23 16 29 0 20 24 13 42 -12z m-4655 -73 c-55 -118 -100 -165
-184 -194 l-48 -16 -6 -74 c-4 -41 -10 -191 -14 -334 -12 -398 -22 -399 -24
-3 -1 421 -2 414 85 442 66 21 111 65 161 158 42 78 63 92 30 21z m8168 37
c-3 -5 -14 -10 -23 -10 -9 0 -51 -19 -92 -41 -56 -31 -70 -35 -55 -19 23 26
64 48 120 66 50 16 58 16 50 4z m-561 -11 c40 -11 121 -57 114 -64 -2 -3 -22
4 -44 15 -21 11 -73 28 -114 39 -67 17 -71 19 -35 20 22 1 58 -4 79 -10z m276
-99 c0 -5 -12 -10 -26 -10 -14 0 -23 4 -19 10 3 6 15 10 26 10 10 0 19 -4 19
-10z m-2344 -51 c59 -22 128 -78 151 -123 16 -31 15 -30 -29 11 -57 52 -109
84 -173 107 -27 10 -54 23 -60 28 -14 14 46 1 111 -23z m2280 -266 c3 -98 1
-138 -5 -118 -13 43 -19 287 -7 275 5 -5 11 -76 12 -157z m-1647 82 c-3 -2
-39 -11 -80 -19 -41 -8 -91 -22 -111 -30 -21 -9 -38 -14 -38 -11 0 7 61 37
105 51 38 12 134 19 124 9z m2820 -61 c36 -53 39 -65 10 -38 -19 17 -49 65
-49 79 0 13 11 2 39 -41z m-3148 9 c12 -15 12 -16 -4 -10 -10 4 -32 7 -48 7
-18 0 -28 4 -24 10 10 16 61 11 76 -7z m-6281 -150 c-11 -17 -11 -17 -6 0 3
10 7 26 7 35 1 15 2 15 6 0 2 -10 -1 -25 -7 -35z m-213 -15 c-2 -13 -4 -5 -4
17 -1 22 1 32 4 23 2 -10 2 -28 0 -40z m9087 -75 c9 -23 -12 -43 -24 -23 -5 8
-10 21 -10 28 0 18 27 15 34 -5z m-8333 -214 l21 -21 -23 -24 c-24 -23 -24
-23 -49 -4 l-25 19 24 25 c14 14 26 26 28 26 2 0 13 -10 24 -21z m6862 4 c42
-4 66 -10 64 -17 -2 -6 -19 -9 -37 -8 l-33 4 6 -46 c4 -25 3 -46 -2 -46 -5 0
-11 18 -14 41 -6 48 -14 59 -27 39 -7 -10 -10 -11 -10 -2 0 7 -14 12 -36 12
-47 0 -86 -41 -106 -112 -10 -36 -20 -54 -33 -57 -17 -3 -18 3 -11 78 8 98 12
109 39 114 36 7 128 7 200 0z m-893 -113 c184 -32 430 -75 545 -94 116 -20
273 -47 350 -60 77 -14 210 -32 295 -41 369 -39 832 -99 852 -111 4 -3 7 -15
7 -27 -1 -15 -3 -17 -6 -6 -3 12 -20 18 -66 22 -99 8 -569 65 -722 87 -190 27
-472 65 -755 100 -129 17 -275 37 -325 45 -520 90 -604 99 -648 70 -53 -34
-23 -79 65 -101 30 -7 42 -13 28 -13 -43 -1 -140 26 -160 44 -16 14 -20 31
-20 76 0 63 -3 60 70 73 49 9 159 -6 490 -64z m927 38 c-3 -7 -5 -2 -5 12 0
14 2 19 5 13 2 -7 2 -19 0 -25z m-1162 -213 c94 -2 222 -11 285 -19 169 -24
334 -56 345 -68 7 -7 6 -9 -1 -5 -6 4 -72 14 -145 22 -74 9 -194 27 -267 41
-128 24 -136 24 -183 9 -27 -9 -54 -14 -61 -10 -7 4 -4 -1 7 -10 19 -16 19
-17 -15 -9 -19 4 -46 8 -60 8 -14 0 -31 7 -39 14 -11 11 -31 13 -75 8 -55 -5
-65 -10 -101 -48 l-39 -42 44 -11 c25 -6 107 -22 182 -35 86 -14 135 -27 131
-33 -4 -6 11 2 33 18 51 38 52 39 30 31 -16 -5 -17 -4 -6 9 10 12 16 13 26 4
11 -9 14 -7 15 12 1 15 3 18 6 8 3 -13 20 -18 66 -21 68 -5 90 -1 80 15 -3 6
-1 7 5 3 9 -5 9 -13 2 -26 -8 -16 -8 -18 5 -14 8 4 15 11 15 17 0 17 10 2 15
-22 2 -12 0 -19 -6 -16 -5 4 -6 11 -3 17 4 7 2 8 -4 4 -9 -5 -4 -17 13 -40 14
-18 25 -38 25 -45 0 -7 3 -10 8 -8 4 3 8 -6 9 -20 0 -14 6 -30 13 -37 8 -8 10
-2 7 26 -2 21 -7 41 -10 45 -10 9 -9 23 1 23 11 0 34 -49 27 -60 -7 -11 28 -7
38 5 5 6 6 -3 2 -20 l-6 -30 21 33 c24 39 26 49 5 32 -12 -10 -15 -10 -16 1 0
10 -2 11 -6 2 -7 -18 -20 -16 -27 5 -3 9 -9 24 -12 32 -3 9 0 8 10 -4 8 -10
19 -15 24 -12 6 3 13 0 16 -6 5 -10 7 -10 12 0 3 6 10 12 15 12 6 0 7 -4 4
-10 -3 -5 -2 -10 4 -10 5 0 13 5 17 11 11 18 87 49 122 49 18 0 46 -7 61 -15
32 -16 77 -65 86 -94 5 -17 9 -16 38 13 18 17 32 33 31 36 -1 3 27 7 62 8 51
3 71 -1 98 -17 31 -20 86 -103 86 -132 0 -8 5 -32 11 -53 8 -28 13 -36 19 -25
12 23 32 138 25 149 -3 6 -2 10 4 10 5 0 11 10 13 23 3 19 8 22 49 21 68 -3
146 -40 180 -87 16 -22 29 -49 29 -59 0 -16 4 -15 25 11 57 67 187 81 245 26
47 -45 38 -127 -19 -179 -21 -19 -22 -19 -50 8 -29 28 -61 32 -68 9 -2 -6 18
-36 46 -67 28 -30 59 -73 71 -95 43 -85 14 -210 -59 -258 -45 -30 -120 -31
-167 -2 -57 35 -65 67 -42 165 l12 51 32 -33 c33 -36 71 -44 80 -19 4 9 -15
43 -44 82 -27 38 -53 76 -59 86 -8 16 -13 13 -41 -22 -31 -39 -98 -71 -148
-71 -23 0 -33 -26 -49 -128 -7 -40 -9 -43 -32 -37 -14 3 -38 9 -54 12 -35 7
-34 2 -9 167 20 127 27 227 9 136 -20 -107 -42 -154 -108 -223 -77 -81 -185
-64 -238 37 l-15 29 -21 -25 c-70 -79 -184 -82 -253 -6 -45 48 -73 140 -75
236 l0 47 -18 -55 c-54 -166 -147 -256 -243 -235 -106 24 -159 103 -166 250
-2 50 -9 98 -14 108 -13 24 10 96 24 76 7 -10 7 -7 3 9 -4 14 -2 22 6 22 10 0
10 3 2 11 -7 7 -8 18 -3 28 5 9 11 24 14 34 3 10 10 15 16 12 5 -3 10 -2 10 3
0 4 -78 18 -172 30 -95 12 -183 25 -195 28 -26 7 -30 35 -13 96 14 47 43 58
140 52 41 -3 152 -7 245 -9z m720 -33 c-3 -3 -11 0 -18 7 -9 10 -8 11 6 5 10
-3 15 -9 12 -12z m177 -13 c154 -13 188 -24 48 -16 -135 9 -200 18 -207 30 -4
6 0 8 10 4 9 -3 76 -11 149 -18z m-1062 -9 c0 -5 -7 -7 -15 -4 -8 4 -15 8 -15
10 0 2 7 4 15 4 8 0 15 -4 15 -10z m1545 -51 c269 -40 316 -50 205 -43 -74 4
-318 35 -390 49 -14 3 -53 11 -87 17 -35 7 -63 15 -63 18 0 7 55 1 335 -41z
m-1108 19 c-3 -8 -6 -5 -6 6 -1 11 2 17 5 13 3 -3 4 -12 1 -19z m-33 -23 c6
-16 2 -18 -31 -9 -30 8 -29 19 1 22 13 1 27 -5 30 -13z m-201 -14 c5 -1 5 -5
2 -11 -3 -5 0 -10 7 -10 10 0 9 -3 -2 -9 -18 -12 -31 -5 -23 14 3 11 1 13 -10
9 -8 -3 -17 -1 -21 4 -3 5 5 7 17 6 12 -1 26 -3 30 -3z m297 -85 c-5 -5 -10
-8 -11 -5 0 2 -2 20 -5 39 l-4 35 15 -29 c11 -20 12 -33 5 -40z m205 44 c-3
-5 -12 -10 -18 -10 -7 0 -6 4 3 10 19 12 23 12 15 0z m-167 -14 c-7 -8 -15
-12 -17 -11 -5 6 10 25 20 25 5 0 4 -6 -3 -14z m-4022 -42 c17 -25 18 -48 15
-221 -1 -55 -11 -63 -50 -38 -10 5 -16 4 -19 -3 -2 -7 -8 -12 -13 -12 -5 0 -9
62 -9 140 0 122 2 140 18 149 27 16 40 13 58 -15z m3504 17 c51 -9 50 -10 -5
-17 -215 -27 -210 -24 -202 -119 l5 -60 -29 33 c-26 28 -29 40 -29 95 0 35 3
67 7 70 9 9 198 7 253 -2z m901 -8 c10 -11 10 -14 2 -9 -9 5 -13 1 -14 -11 0
-16 -1 -16 -8 2 -8 18 -6 35 3 35 2 0 10 -8 17 -17z m27 -49 c-15 -13 -25 -17
-30 -10 -10 15 7 32 31 32 21 0 21 -1 -1 -22z m1460 -10 c12 -2 22 -9 22 -14
0 -16 -47 -23 -82 -12 -18 6 -46 13 -61 16 -15 4 -25 11 -22 16 6 9 85 6 143
-6z m-2314 -2 c3 -5 -1 -9 -9 -9 -8 0 -12 4 -9 9 3 4 7 8 9 8 2 0 6 -4 9 -8z
m1836 -21 c0 -4 -11 -6 -25 -3 -14 2 -25 6 -25 8 0 2 11 4 25 4 14 0 25 -4 25
-9z m54 -10 c3 -4 -6 -6 -19 -3 -14 2 -25 6 -25 8 0 8 39 4 44 -5z m238 -42
c198 -40 216 -44 207 -53 -6 -6 -237 39 -282 54 -18 6 -59 17 -92 24 -127 29
-27 14 167 -25z m-2247 22 c40 -9 39 -9 -17 -10 -33 0 -58 3 -58 9 0 12 20 12
75 1z m1283 -16 c-3 -3 -9 2 -12 12 -6 14 -5 15 5 6 7 -7 10 -15 7 -18z
m-1178 3 c0 -5 -11 -8 -25 -8 -14 0 -25 4 -25 9 0 5 11 8 25 7 14 0 25 -4 25
-8z m1933 3 c21 -5 47 -17 56 -26 17 -14 17 -21 6 -83 -15 -75 -92 -347 -106
-374 -12 -23 -51 -23 -78 0 -21 16 -21 20 -11 117 15 141 40 304 51 343 11 35
20 37 82 23z m-5294 -83 c-1 -66 -12 -108 -23 -90 -10 16 3 142 15 142 5 0 9
-24 8 -52z m-449 -54 c0 -41 -4 -73 -9 -70 -11 7 -25 132 -16 146 15 24 25 -6
25 -76z m3583 -25 c-63 -24 -109 -73 -118 -127 -9 -57 6 -82 53 -83 20 -1 51
-5 67 -9 21 -5 5 -8 -57 -9 -108 -1 -118 6 -118 89 0 80 13 105 69 128 57 25
77 30 121 30 34 1 33 0 -17 -19z m2535 14 c-21 -2 -57 -2 -80 0 -24 2 -7 4 37
4 44 0 63 -2 43 -4z m-2421 -69 c-3 -3 -12 -4 -19 -1 -8 3 -5 6 6 6 11 1 17
-2 13 -5z m-2197 -14 c0 -5 -7 -10 -15 -10 -8 0 -15 5 -15 10 0 6 7 10 15 10
8 0 15 -4 15 -10z m2740 -50 c0 -5 -5 -10 -11 -10 -5 0 -7 5 -4 10 3 6 8 10
11 10 2 0 4 -4 4 -10z m-577 -87 c-7 -2 -21 -2 -30 0 -10 3 -4 5 12 5 17 0 24
-2 18 -5z m-2711 -37 c10 -15 10 -136 1 -136 -10 1 -63 120 -63 141 0 12 7 15
28 11 15 -3 30 -10 34 -16z m-1902 -70 c-7 -7 -10 4 -9 30 1 39 1 39 10 9 5
-18 5 -33 -1 -39z m120 8 c0 -8 -4 -14 -10 -14 -5 0 -10 9 -10 21 0 11 5 17
10 14 6 -3 10 -13 10 -21z m4380 14 l65 -2 -75 -5 -75 -6 -3 -33 c-3 -28 1
-34 30 -47 l33 -14 -30 0 c-58 -1 -105 11 -105 27 0 8 5 33 12 54 11 39 13 40
47 34 20 -3 65 -7 101 -8z m-4248 -74 c10 -38 4 -54 -23 -54 -19 0 -21 4 -15
31 3 17 6 38 6 46 0 25 23 8 32 -23z m174 -41 c-12 -30 -29 2 -21 39 l8 33 9
-28 c6 -15 7 -35 4 -44z m6220 35 c8 -7 16 -27 20 -44 4 -24 0 -37 -21 -62
-27 -32 -61 -41 -100 -26 -26 10 -45 63 -33 94 18 48 39 62 82 57 21 -3 45
-11 52 -19z m1279 -97 c22 -24 76 -70 120 -103 44 -32 89 -65 100 -73 10 -8
23 -15 27 -15 4 0 8 -5 8 -11 0 -13 -119 52 -185 101 -75 57 -126 118 -153
185 l-12 30 27 -35 c16 -19 46 -55 68 -79z m-3294 63 c8 -9 19 -35 26 -58 l11
-41 1 53 c1 49 3 52 26 52 14 0 33 -9 42 -19 14 -17 20 -18 52 -7 79 28 133
-19 133 -113 0 -93 -47 -161 -111 -161 -31 0 -42 5 -57 28 -10 15 -21 43 -24
62 -6 34 -7 34 -14 -17 -7 -47 -11 -53 -32 -53 -26 0 -48 27 -61 75 l-8 30 -5
-40 c-5 -37 -8 -40 -35 -40 l-30 0 3 115 c2 63 6 123 8 133 7 22 57 23 75 1z
m2366 -21 c-20 -2 -52 -2 -70 0 -17 2 0 4 38 4 39 0 53 -2 32 -4z m-2528 -19
c1 -1 -14 -6 -35 -9 -53 -9 -84 -25 -84 -44 0 -13 -2 -13 -16 1 -11 11 -14 25
-10 42 6 26 7 26 74 20 37 -4 69 -8 71 -10z m619 -23 c11 -13 14 -14 21 -2 6
10 19 12 44 7 36 -7 47 -20 47 -59 1 -20 2 -20 16 6 8 15 20 27 27 28 19 2 62
-3 66 -7 2 -2 -2 -62 -9 -134 l-13 -130 -28 0 c-27 0 -28 3 -31 53 l-4 52 -14
-47 c-8 -27 -20 -48 -26 -48 -22 0 -44 31 -45 63 -1 30 -2 29 -12 -10 -11 -46
-37 -58 -55 -27 -6 11 -12 13 -16 6 -5 -8 -15 -8 -37 0 -28 10 -30 13 -25 47
3 20 8 63 11 96 13 133 14 136 43 129 15 -4 33 -14 40 -23z m413 -51 c45 -12
49 -29 49 -176 0 -97 -1 -104 -20 -104 -10 0 -24 9 -30 20 -6 12 -21 20 -35
20 -18 0 -25 -5 -25 -20 0 -23 -29 -27 -48 -8 -18 18 -14 66 13 158 14 46 25
92 25 102 0 21 18 23 71 8z m-4597 -22 c9 -37 7 -56 -10 -72 -26 -27 -34 -18
-34 39 0 47 3 55 19 55 11 0 21 -9 25 -22z m4729 -7 c5 -5 13 -36 16 -68 l7
-58 18 40 c9 22 20 52 23 68 4 19 12 27 27 27 47 0 47 -10 2 -143 -24 -71 -46
-131 -49 -134 -3 -3 -23 -1 -44 4 l-37 9 -13 74 c-6 41 -16 95 -20 120 -13 69
-7 83 30 76 17 -4 35 -10 40 -15z m245 -35 c3 -4 8 -39 10 -79 6 -100 18 -104
24 -8 3 45 7 83 10 87 3 3 17 2 32 -2 22 -5 26 -12 27 -43 l1 -36 10 33 c9 25
16 32 36 32 l25 0 -8 -72 c-13 -122 -13 -123 13 -122 19 0 22 -4 22 -38 0 -37
-1 -38 -37 -38 -21 0 -50 7 -65 14 -16 8 -28 11 -28 7 0 -5 -11 -6 -25 -3 -14
2 -25 11 -25 19 0 12 -2 12 -15 0 -19 -20 -55 -10 -55 14 0 12 -7 19 -20 19
-14 0 -20 -7 -20 -21 0 -18 -4 -20 -27 -14 -16 3 -32 10 -36 15 -8 7 32 189
52 236 8 19 14 21 51 14 22 -4 44 -11 48 -14z m-4433 -18 c6 -26 9 -74 7 -136
-2 -43 -3 -43 -34 -40 l-33 3 -3 77 c-2 43 2 87 8 98 15 27 48 26 55 -2z
m4780 -28 c8 -16 15 -49 15 -73 0 -47 -11 -63 -68 -91 -18 -9 -32 -22 -31 -29
5 -42 -2 -58 -23 -55 -20 3 -24 11 -30 63 -9 72 6 155 33 189 30 38 83 36 104
-4z m-6915 -21 c0 -11 -4 -17 -10 -14 -5 3 -10 1 -10 -4 0 -6 -4 -11 -10 -11
-5 0 -10 9 -10 21 0 11 4 18 9 14 5 -3 12 -1 16 5 10 16 15 12 15 -11z m7070
-5 c6 -14 11 -69 12 -122 l1 -97 10 118 10 117 31 0 c17 0 47 -8 66 -18 31
-15 36 -22 41 -67 l6 -50 1 58 c2 57 2 58 30 55 l27 -3 -3 -97 c-2 -81 0 -98
12 -98 8 0 16 -6 19 -12 7 -19 17 28 25 117 l7 80 65 -4 c36 -2 67 -5 69 -7 2
-2 0 -18 -5 -36 -7 -25 -15 -33 -33 -33 -31 0 -40 -25 -12 -32 34 -9 25 -57
-11 -61 -35 -4 -37 -29 -3 -38 20 -5 25 -13 25 -36 l0 -30 -52 6 c-29 4 -81 9
-115 12 -62 6 -63 6 -63 35 l0 30 -28 -21 c-23 -17 -39 -20 -107 -17 -76 3
-80 5 -77 25 3 18 -2 22 -22 22 -16 0 -27 -7 -31 -21 -5 -14 -14 -19 -28 -17
-30 4 -34 53 -9 126 11 31 23 76 27 100 l7 42 49 0 c44 0 51 -3 59 -26z m505
-40 c17 -17 16 -24 -7 -127 -9 -41 -13 -48 -32 -45 -19 3 -21 9 -21 80 1 97
22 129 60 92z m-6529 -119 c14 -34 19 -140 8 -169 -8 -22 -70 -22 -78 0 -3 9
-6 48 -6 88 0 108 44 156 76 81z m4540 -40 c167 -18 496 -63 503 -70 7 -7 -2
-7 -206 15 -298 32 -515 59 -521 65 -9 9 72 5 224 -10z m1968 -41 c21 -8 21
-67 1 -84 -8 -7 -25 -10 -40 -6 -21 5 -25 12 -25 45 0 21 3 41 7 44 8 9 36 9
57 1z m-2324 -76 c0 -5 -7 -3 -15 6 -8 8 -15 18 -15 22 0 3 7 1 15 -6 8 -7 15
-17 15 -22z m-29 -27 c-6 -10 -7 -22 -3 -26 4 -5 1 -5 -6 -1 -9 5 -9 12 -2 27
6 10 13 19 16 19 2 0 0 -8 -5 -19z m1547 -15 c160 -23 228 -40 121 -31 -86 9
-353 46 -358 51 -10 10 86 2 237 -20z m-238 -47 c25 -14 -20 -10 -60 7 l-35
14 40 -6 c22 -3 47 -10 55 -15z m-1250 -129 c0 -5 -2 -10 -4 -10 -3 0 -8 5
-11 10 -3 6 -1 10 4 10 6 0 11 -4 11 -10z m47 -12 c-3 -8 -6 -5 -6 6 -1 11 2
17 5 13 3 -3 4 -12 1 -19z m-4629 -115 l-3 -68 -30 0 c-29 0 -30 1 -33 54 -4
70 1 81 38 81 l31 0 -3 -67z m5426 48 c4 -5 -6 -88 -21 -185 -25 -165 -28
-176 -49 -176 -16 0 -20 5 -18 23 35 214 56 332 60 339 7 11 21 10 28 -1z
m-3932 -113 c-6 -6 -7 0 -4 19 5 21 7 23 10 9 2 -10 0 -22 -6 -28z m-543 -86
c100 -29 220 -119 345 -256 l77 -85 -35 -208 c-46 -271 -65 -425 -79 -658
l-12 -190 -25 3 c-14 2 -29 8 -34 13 -6 5 -15 4 -23 -2 -10 -9 -13 -7 -13 9 0
11 -7 25 -15 32 -13 11 -13 15 -3 23 9 6 8 7 -4 3 -10 -3 -26 -9 -35 -12 -15
-5 -16 -4 -3 5 13 9 12 12 -8 17 -21 6 -21 7 -5 19 16 12 14 13 -10 8 -21 -4
-26 -2 -22 9 4 9 -12 21 -50 38 -51 22 -60 31 -56 53 1 5 -3 6 -8 3 -5 -4 -12
0 -14 6 -3 7 -3 -2 0 -21 4 -24 3 -32 -5 -27 -7 4 -12 24 -12 44 0 28 -3 33
-10 22 -8 -12 -10 -12 -11 5 l0 20 -9 -20 c-7 -18 -8 -17 -15 10 -13 56 -13
56 -55 52 -31 -3 -40 -1 -36 9 3 7 1 16 -4 19 -4 3 -11 -1 -13 -7 -3 -8 -6 -6
-6 5 -1 17 13 22 54 19 18 -2 18 -1 3 8 -9 6 -15 17 -12 25 4 8 2 15 -4 15 -5
0 -12 -7 -16 -15 -3 -8 -15 -15 -27 -15 -15 0 -19 -4 -15 -16 3 -9 9 -28 12
-42 4 -15 10 -31 14 -37 4 -5 13 -28 20 -50 7 -22 16 -44 20 -50 4 -5 11 -21
15 -35 11 -37 121 -225 179 -305 28 -38 82 -103 121 -144 86 -91 38 -61 -65
41 -90 89 -178 215 -250 358 -61 119 -110 264 -110 322 0 39 0 40 33 33 24 -5
28 -4 17 4 -8 6 -22 11 -31 11 -15 0 -29 19 -29 40 0 5 7 16 17 25 12 12 13
19 4 24 -6 4 -9 15 -6 24 9 21 35 30 35 12 0 -8 -4 -15 -10 -15 -5 0 -7 -7 -3
-16 5 -15 7 -15 15 1 6 9 8 26 5 37 -4 12 6 35 26 63 61 83 87 132 81 151 -4
15 -4 16 4 5 8 -11 11 -9 17 8 3 11 11 21 16 21 5 0 9 5 9 10 0 6 -17 10 -37
10 -21 0 -51 7 -67 15 -32 17 -49 20 -26 5 13 -8 12 -10 -2 -10 -10 0 -18 5
-18 11 0 7 -10 9 -25 5 -18 -5 -27 -2 -31 9 -3 8 -10 13 -14 10 -5 -3 -22 7
-40 21 -38 33 -47 26 -23 -18 23 -44 24 -64 3 -113 -48 -109 -191 -174 -285
-129 -66 31 -91 104 -73 218 14 95 39 164 95 258 129 217 379 319 612 250z
m4236 -1084 c-8 -70 -79 -533 -95 -617 -5 -29 -10 -68 -10 -86 0 -30 -23 -55
-34 -37 -5 9 52 357 92 557 17 83 33 171 37 198 11 69 18 58 10 -15z m-345
-567 c0 -5 -7 -12 -16 -15 -24 -9 -28 -7 -14 9 14 17 30 20 30 6z m-197 -108
c-7 -2 -19 -2 -25 0 -7 3 -2 5 12 5 14 0 19 -2 13 -5z m-3151 -1075 c-8 -8 -9
-15 -1 -25 8 -9 8 -13 1 -13 -13 0 -21 21 -14 38 2 6 9 12 15 12 8 0 7 -4 -1
-12z m778 -18 c0 -5 -7 -10 -15 -10 -8 0 -15 5 -15 10 0 6 7 10 15 10 8 0 15
-4 15 -10z m-725 -9 c-9 -8 -36 -10 -30 -2 2 4 11 8 20 8 8 0 13 -3 10 -6z
m25 -15 c0 -3 -4 -8 -10 -11 -5 -3 -10 -1 -10 4 0 6 5 11 10 11 6 0 10 -2 10
-4z m3146 -35 c-1 -16 -4 -32 -7 -35 -4 -4 -5 32 0 57 3 19 8 4 7 -22z m-2477
0 c10 -7 7 -9 -12 -8 -14 1 -23 5 -20 10 6 9 15 9 32 -2z m2626 -41 c3 -5 2
-10 -4 -10 -5 0 -13 5 -16 10 -3 6 -2 10 4 10 5 0 13 -4 16 -10z m-3348 -42
c-3 -8 -6 -5 -6 6 -1 11 2 17 5 13 3 -3 4 -12 1 -19z m3420 -4 c-3 -3 -12 -4
-19 -1 -8 3 -5 6 6 6 11 1 17 -2 13 -5z m-1499 -62 c2 -7 -3 -12 -12 -12 -9 0
-16 7 -16 16 0 17 22 14 28 -4z m-5184 -52 c55 -36 81 -60 91 -84 16 -39 52
-208 60 -286 l5 -55 -13 40 c-8 22 -23 60 -35 85 -11 25 -31 82 -43 128 -25
91 -34 101 -134 132 -22 7 -44 16 -49 21 -16 15 -60 10 -101 -11 -43 -22 -52
-20 -37 7 10 17 129 70 163 72 9 1 51 -22 93 -49z m5001 10 c3 -5 1 -10 -4
-10 -6 0 -11 5 -11 10 0 6 2 10 4 10 3 0 8 -4 11 -10z m2695 -64 c0 -2 -7 -7
-16 -10 -8 -3 -12 -2 -9 4 6 10 25 14 25 6z m-91 -42 c10 -9 -35 -3 -49 6 -11
8 -7 9 15 4 17 -4 32 -8 34 -10z m-6399 -29 c142 -34 173 -55 211 -140 44 -99
60 -236 66 -557 4 -202 2 -298 -5 -298 -12 0 -19 91 -27 345 -12 382 -59 560
-156 592 -20 6 -83 17 -140 23 -57 7 -126 18 -153 26 -27 8 -65 14 -83 14 -18
0 -33 5 -33 12 0 16 235 3 320 -17z m4330 -76 c0 -14 -17 -10 -23 5 -4 10 -1
13 9 9 7 -3 14 -9 14 -14z m3790 11 c0 -5 -8 -10 -19 -10 -33 0 -43 -25 -40
-97 l4 -67 -50 -19 c-27 -10 -58 -26 -68 -35 -14 -12 -20 -13 -30 -3 -19 19 4
43 59 60 l49 16 0 69 c1 55 4 71 20 82 22 16 75 19 75 4z m-8546 -222 c8 -18
24 -80 35 -137 20 -93 20 -106 7 -120 -9 -8 -18 -13 -20 -10 -3 2 -12 40 -21
83 -25 120 -45 168 -77 178 -20 7 -84 -6 -277 -56 -188 -48 -251 -61 -251 -50
0 7 6 11 13 8 7 -2 78 15 158 40 123 38 243 71 324 89 11 3 37 5 58 6 34 1 39
-3 51 -31z m8515 -100 c25 -150 26 -144 -9 -175 -19 -17 -35 -44 -40 -68 -16
-67 -13 -81 20 -95 17 -7 32 -16 35 -20 7 -11 -68 -1 -80 11 -16 16 11 137 39
178 24 34 25 40 16 96 -12 75 -13 135 -1 135 5 0 14 -28 20 -62z m-3299 12 c0
-5 -4 -10 -10 -10 -5 0 -10 5 -10 10 0 6 5 10 10 10 6 0 10 -4 10 -10z m3114
-66 c9 -8 16 -25 16 -37 0 -21 0 -21 -13 -2 -15 22 -28 55 -22 55 2 0 11 -7
19 -16z m456 -24 c22 -14 12 -17 -72 -23 -76 -5 -96 2 -60 22 21 13 112 14
132 1z m-478 -158 c-15 -10 -1 -57 20 -65 20 -7 -22 -36 -52 -35 -39 1 -107
-21 -126 -40 -10 -9 -21 -18 -26 -18 -4 -1 -12 -2 -18 -3 -5 0 -7 -7 -4 -14 2
-7 -10 -21 -27 -31 -17 -10 -52 -45 -77 -78 -32 -41 -48 -55 -50 -44 -9 43 43
138 100 185 41 33 134 69 187 72 l43 3 -6 38 c-6 36 -5 38 21 38 19 0 24 -3
15 -8z m-45 -395 c27 -40 45 -86 37 -98 -18 -30 -143 16 -144 53 0 13 62 78
74 78 6 0 21 -15 33 -33z m277 4 c16 -17 26 -36 24 -43 -7 -17 -89 -58 -117
-58 -26 0 -28 27 -5 73 35 68 55 73 98 28z m-7896 -117 c38 -25 63 -75 57
-112 -4 -18 -8 -39 -11 -46 -6 -15 43 -37 137 -61 35 -9 82 -25 104 -35 22
-10 52 -24 68 -29 15 -6 27 -17 27 -25 0 -11 -14 -9 -67 11 -38 14 -129 44
-203 67 -121 36 -132 41 -107 50 24 9 27 15 27 51 0 68 -16 100 -61 120 -22
10 -43 23 -46 28 -8 14 46 0 75 -19z m482 -114 c0 -53 -4 -90 -10 -90 -6 0
-10 37 -10 90 0 53 4 90 10 90 6 0 10 -37 10 -90z m7477 -11 c-5 -38 -39 -89
-59 -89 -4 0 -27 -9 -51 -19 -45 -21 -267 -46 -277 -32 -3 5 -26 17 -52 29
-50 22 -88 69 -88 109 0 36 20 37 56 2 25 -24 47 -35 86 -41 125 -20 143 -20
188 -3 25 10 61 19 82 22 22 3 46 16 64 34 41 43 58 39 51 -12z m-7535 -73
c26 -8 57 -20 70 -27 39 -20 208 -159 224 -184 18 -28 10 -91 -13 -99 -12 -5
-13 2 -8 37 6 38 4 45 -27 73 -56 53 -179 144 -194 144 -7 0 -11 6 -8 13 5 13
-47 37 -82 37 -10 0 -26 5 -34 10 -23 15 16 13 72 -4z m84 -186 c63 -33 48
-35 -25 -4 -44 19 -61 32 -61 46 0 18 0 18 20 0 12 -11 41 -30 66 -42z m6614
33 c0 -19 -92 -57 -201 -84 -145 -35 -156 -40 -167 -82 -8 -26 -11 -29 -17
-14 -11 26 3 65 28 79 29 16 317 107 340 108 9 0 17 -3 17 -7z"/>
<path d="M3082 9100 c-45 -14 -84 -24 -87 -22 -8 8 -63 -19 -69 -34 -5 -12 5
-14 52 -13 31 1 67 -1 79 -5 17 -6 28 -2 50 21 15 16 47 35 71 42 23 6 42 17
42 24 0 20 -50 15 -138 -13z"/>
<path d="M4430 6951 c-100 -31 -173 -99 -146 -136 11 -16 16 -15 76 15 38 19
85 34 119 37 62 6 81 16 81 44 0 39 -66 59 -130 40z"/>
<path d="M6280 6861 c0 -6 4 -13 10 -16 6 -3 7 1 4 9 -7 18 -14 21 -14 7z"/>
<path d="M5680 6815 c-20 -25 -7 -49 43 -74 26 -14 70 -44 97 -67 52 -45 74
-48 86 -12 15 49 -113 168 -181 168 -18 0 -38 -7 -45 -15z"/>
<path d="M6327 6810 c9 -11 19 -17 21 -15 6 6 -18 35 -29 35 -5 0 -1 -9 8 -20z"/>
<path d="M6350 6775 c0 -9 49 -53 54 -47 6 5 10 -14 7 -31 -1 -5 3 -6 9 -2 15
9 14 11 -24 50 -32 32 -46 42 -46 30z"/>
<path d="M6445 6650 c4 -6 11 -8 16 -5 14 9 11 15 -7 15 -8 0 -12 -5 -9 -10z"/>
<path d="M4348 6620 c-146 -44 -251 -224 -234 -403 18 -196 178 -299 342 -221
61 29 100 74 142 163 33 72 42 211 19 292 -40 135 -151 205 -269 169z m2 -227
c29 -37 22 -99 -15 -130 -32 -28 -49 -29 -75 -3 -38 38 -38 102 0 140 28 28
64 25 90 -7z"/>
<path d="M6466 6563 c-6 -14 -5 -15 5 -6 7 7 10 15 7 18 -3 3 -9 -2 -12 -12z"/>
<path d="M5573 6469 c-64 -12 -117 -44 -167 -101 -53 -60 -81 -127 -97 -227
-44 -287 206 -459 427 -292 124 93 174 293 114 453 -47 125 -155 190 -277 167z
m-40 -224 c28 -21 32 -83 8 -122 -59 -94 -158 -4 -106 97 21 41 63 52 98 25z"/>
<path d="M3511 5894 c0 -11 3 -14 6 -6 3 7 2 16 -1 19 -3 4 -6 -2 -5 -13z"/>
<path d="M4430 5825 c-18 -22 1 -60 38 -79 22 -11 31 -25 37 -53 13 -72 65
-162 127 -217 54 -49 58 -56 58 -97 0 -50 27 -115 58 -143 31 -27 101 -32 146
-11 54 26 71 57 72 135 l1 65 44 25 c60 33 130 105 158 163 12 26 26 45 31 42
9 -6 72 35 77 50 2 6 -3 19 -10 29 -13 18 -16 18 -78 -12 -201 -97 -577 -50
-692 88 -28 33 -48 38 -67 15z m350 -321 c0 -12 -6 -15 -21 -11 -15 4 -19 2
-15 -8 3 -9 -2 -13 -15 -12 -25 2 -24 12 3 31 29 20 48 20 48 0z m84 1 c-4 -8
-11 -15 -17 -15 -6 0 -7 -3 -4 -6 4 -4 13 -2 20 5 23 18 39 -11 45 -84 3 -43
0 -74 -7 -89 -18 -32 -65 -58 -98 -52 -15 2 -31 5 -35 5 -26 4 -68 144 -47
157 6 3 7 15 3 26 -4 14 -2 18 5 14 6 -4 20 -2 32 5 28 14 35 3 38 -58 1 -45
6 -61 16 -52 2 3 5 33 7 68 2 50 6 66 22 77 25 18 27 17 20 -1z"/>
<path d="M6596 5824 c-4 -9 -4 -19 -1 -22 2 -3 7 3 11 12 4 9 4 19 1 22 -2 3
-7 -3 -11 -12z"/>
<path d="M7161 5074 c0 -11 3 -14 6 -6 3 7 2 16 -1 19 -3 4 -6 -2 -5 -13z"/>
<path d="M7555 5010 c3 -5 8 -10 11 -10 2 0 4 5 4 10 0 6 -5 10 -11 10 -5 0
-7 -4 -4 -10z"/>
<path d="M7051 4514 c0 -11 3 -14 6 -6 3 7 2 16 -1 19 -3 4 -6 -2 -5 -13z"/>
<path d="M6660 4210 c0 -5 4 -10 9 -10 6 0 13 5 16 10 3 6 -1 10 -9 10 -9 0
-16 -4 -16 -10z"/>
<path d="M6590 4170 c0 -5 5 -10 10 -10 6 0 10 5 10 10 0 6 -4 10 -10 10 -5 0
-10 -4 -10 -10z"/>
<path d="M3481 3384 c0 -11 3 -14 6 -6 3 7 2 16 -1 19 -3 4 -6 -2 -5 -13z"/>
<path d="M3471 3314 c0 -11 3 -14 6 -6 3 7 2 16 -1 19 -3 4 -6 -2 -5 -13z"/>
<path d="M3491 3314 c0 -11 3 -14 6 -6 3 7 2 16 -1 19 -3 4 -6 -2 -5 -13z"/>
<path d="M3503 3275 c-3 -9 -3 -18 -1 -21 3 -3 8 4 11 16 6 23 -1 27 -10 5z"/>
<path d="M3492 3220 c0 -14 2 -19 5 -12 2 6 2 18 0 25 -3 6 -5 1 -5 -13z"/>
<path d="M3510 3210 c0 -5 5 -10 11 -10 5 0 7 5 4 10 -3 6 -8 10 -11 10 -2 0
-4 -4 -4 -10z"/>
<path d="M4190 3185 c-14 -16 -10 -18 14 -9 9 3 16 10 16 15 0 14 -16 11 -30
-6z"/>
<path d="M3481 3164 c0 -11 3 -14 6 -6 3 7 2 16 -1 19 -3 4 -6 -2 -5 -13z"/>
<path d="M6500 3170 c0 -5 5 -10 11 -10 5 0 7 5 4 10 -3 6 -8 10 -11 10 -2 0
-4 -4 -4 -10z"/>
<path d="M3562 3148 c-16 -16 -15 -35 1 -35 6 0 13 11 13 24 2 27 2 27 -14 11z"/>
<path d="M6633 3145 c0 -8 4 -15 9 -15 4 0 8 4 8 9 0 6 -4 12 -8 15 -5 3 -9
-1 -9 -9z"/>
<path d="M4164 3075 c0 -25 5 -35 16 -35 12 -1 11 -4 -5 -17 -20 -15 -19 -15
5 -9 14 3 33 6 43 6 9 0 17 6 17 14 0 8 -7 12 -17 10 -25 -6 -52 13 -35 24 10
7 8 12 -6 25 -17 16 -18 15 -18 -18z"/>
<path d="M6960 2959 c0 -5 5 -7 10 -4 6 3 10 8 10 11 0 2 -4 4 -10 4 -5 0 -10
-5 -10 -11z"/>
<path d="M5310 2950 c0 -5 5 -10 11 -10 5 0 7 5 4 10 -3 6 -8 10 -11 10 -2 0
-4 -4 -4 -10z"/>
<path d="M5378 2953 c-16 -2 -28 -11 -28 -19 0 -9 -11 -14 -30 -14 -28 0 -30
-2 -24 -27 9 -36 14 -42 14 -15 0 12 6 22 13 22 7 0 23 9 35 20 12 11 26 20
31 20 5 0 13 5 16 10 3 6 5 9 3 9 -2 -1 -15 -4 -30 -6z"/>
<path d="M7325 2821 c-7 -12 12 -24 25 -16 11 7 4 25 -10 25 -5 0 -11 -4 -15
-9z"/>
<path d="M7617 2804 c-3 -4 1 -13 9 -21 19 -20 26 -13 10 9 -7 10 -16 15 -19
12z"/>
<path d="M6122 2420 c0 -14 2 -19 5 -12 2 6 2 18 0 25 -3 6 -5 1 -5 -13z"/>
<path d="M3970 2410 c0 -5 4 -10 9 -10 6 0 13 5 16 10 3 6 -1 10 -9 10 -9 0
-16 -4 -16 -10z"/>
<path d="M6140 2410 c0 -5 5 -10 11 -10 5 0 7 5 4 10 -3 6 -8 10 -11 10 -2 0
-4 -4 -4 -10z"/>
<path d="M6835 2060 c-13 -6 -15 -9 -5 -9 8 0 22 4 30 9 18 12 2 12 -25 0z"/>
<path d="M1123 8135 c-3 -9 -3 -18 0 -21 9 -9 27 6 27 22 0 19 -19 18 -27 -1z"/>
<path d="M7020 7550 c-53 -53 -69 -183 -29 -234 21 -27 53 -34 65 -14 5 8 2 9
-11 5 -19 -8 -48 10 -39 24 8 13 24 11 22 -2 -5 -21 53 -16 67 6 19 29 31 80
17 71 -8 -5 -10 -2 -6 8 3 9 11 13 16 10 7 -5 8 9 4 42 -13 88 -63 127 -106
84z m25 -10 c-3 -5 1 -10 9 -10 9 0 16 -4 16 -10 0 -5 -7 -10 -15 -10 -8 0
-15 5 -15 11 0 5 -6 7 -12 3 -9 -5 -9 -2 1 9 15 18 26 23 16 7z m-18 -102 c-3
-7 -5 -2 -5 12 0 14 2 19 5 13 2 -7 2 -19 0 -25z m61 -12 c-7 -8 -17 -12 -22
-9 -4 3 -2 9 5 14 22 13 31 11 17 -5z m-28 -51 c0 -8 5 -15 10 -15 6 0 10 7
10 15 0 8 5 15 10 15 12 0 12 -3 4 -24 -3 -9 -13 -16 -21 -16 -8 0 -11 -5 -8
-10 4 -6 11 -7 17 -4 7 4 8 2 4 -4 -5 -9 -14 -7 -31 5 -15 12 -19 20 -11 25 8
6 8 8 -1 8 -7 0 -13 5 -13 10 0 6 7 10 15 10 8 0 15 -7 15 -15z"/>
<path d="M7440 7478 c-24 -41 -42 -121 -34 -156 12 -49 34 -84 50 -78 9 3 12
1 9 -4 -10 -16 5 -12 35 10 59 42 80 190 35 240 -29 32 -72 26 -95 -12z m76
-7 c0 -11 -5 -17 -13 -14 -10 4 -11 9 -2 19 15 18 15 18 15 -5z m-46 -61 c0
-5 -7 -7 -15 -4 -8 4 -15 8 -15 10 0 2 7 4 15 4 8 0 15 -4 15 -10z m36 -27
c-10 -10 -19 5 -10 18 6 11 8 11 12 0 2 -7 1 -15 -2 -18z m-6 -17 c0 -3 -4 -8
-10 -11 -5 -3 -10 -1 -10 4 0 6 5 11 10 11 6 0 10 -2 10 -4z m-57 -26 c-3 -12
-8 -19 -11 -16 -5 6 5 36 12 36 2 0 2 -9 -1 -20z m67 -21 c0 -6 -4 -7 -10 -4
-5 3 -10 11 -10 16 0 6 5 7 10 4 6 -3 10 -11 10 -16z m-36 -4 c-4 -8 -8 -15
-10 -15 -2 0 -4 7 -4 15 0 8 4 15 10 15 5 0 7 -7 4 -15z m-12 -40 c0 -5 -5
-10 -11 -12 -8 -1 -7 0 0 4 8 4 7 8 -2 15 -11 8 -11 9 -1 6 8 -2 14 -8 14 -13z
m30 -17 c-7 -7 -12 -8 -12 -2 0 14 12 26 19 19 2 -3 -1 -11 -7 -17z"/>
<path d="M7747 7452 c-24 -26 -46 -97 -48 -151 -2 -60 8 -82 28 -56 7 11 13
14 13 8 0 -7 -4 -15 -10 -18 -18 -11 -11 -24 15 -31 35 -9 60 16 81 78 22 67
15 145 -16 170 -28 23 -43 23 -63 0z"/>
<path d="M8121 7422 c-6 -21 -14 -53 -17 -71 -6 -30 -5 -32 12 -23 24 13 59
52 67 73 7 20 -19 59 -38 59 -8 0 -19 -17 -24 -38z"/>
<path d="M6854 6825 c-7 -37 -1 -65 15 -65 13 0 33 64 25 83 -11 29 -33 19
-40 -18z"/>
<path d="M7516 6732 c-4 -13 -5 -26 -2 -29 10 -11 18 4 14 29 l-4 23 -8 -23z"/>
<path d="M7860 6685 c0 -14 5 -25 10 -25 6 0 10 11 10 25 0 14 -4 25 -10 25
-5 0 -10 -11 -10 -25z"/>
<path d="M8210 6675 c0 -14 5 -25 10 -25 6 0 10 11 10 25 0 14 -4 25 -10 25
-5 0 -10 -11 -10 -25z"/>
<path d="M8366 6654 c-9 -24 -7 -54 4 -54 6 0 10 16 10 35 0 38 -4 44 -14 19z"/>
<path d="M8510 6659 c0 -5 5 -7 10 -4 6 3 10 8 10 11 0 2 -4 4 -10 4 -5 0 -10
-5 -10 -11z"/>
<path d="M8520 6569 c0 -24 23 -21 28 4 2 10 -3 17 -12 17 -10 0 -16 -9 -16
-21z"/>
<path d="M2778 4983 c7 -3 16 -2 19 1 4 3 -2 6 -13 5 -11 0 -14 -3 -6 -6z"/>
<path d="M2760 4920 c0 -5 5 -10 11 -10 5 0 7 5 4 10 -3 6 -8 10 -11 10 -2 0
-4 -4 -4 -10z"/>
<path d="M2906 4803 c-6 -14 -5 -15 5 -6 7 7 10 15 7 18 -3 3 -9 -2 -12 -12z"/>
<path d="M2935 4800 c3 -5 8 -10 11 -10 2 0 4 5 4 10 0 6 -5 10 -11 10 -5 0
-7 -4 -4 -10z"/>
<path d="M3190 4580 c0 -5 7 -7 15 -4 8 4 15 8 15 10 0 2 -7 4 -15 4 -8 0 -15
-4 -15 -10z"/>
</g>
</svg>
